<svg xmlns="http://www.w3.org/2000/svg" viewBox="0 0 800 1000" role="img" aria-label="Festival Lights placeholder">
  <defs><linearGradient id="g" x1="0" x2="1" y1="0" y2="1"><stop stop-color="#251614"/><stop offset="1" stop-color="#651f1f"/></linearGradient></defs>
  <rect width="800" height="1000" fill="url(#g)"/>
  <g fill="#f4b63f">
    <circle cx="150" cy="160" r="12"/><circle cx="280" cy="225" r="9"/><circle cx="510" cy="165" r="11"/><circle cx="650" cy="260" r="8"/><circle cx="205" cy="530" r="10"/><circle cx="602" cy="575" r="12"/>
  </g>
  <path d="M400 260c65 70 96 126 96 180a96 96 0 0 1-192 0c0-54 31-110 96-180Z" fill="#f4b63f"/>
  <path d="M230 620c84 54 256 54 340 0-20 84-82 130-170 130s-150-46-170-130Z" fill="#fff7e8" opacity=".84"/>
  <text x="400" y="865" text-anchor="middle" font-family="Georgia, serif" font-size="54" font-weight="700" fill="#fff7e8">Lights</text>
</svg>
