<svg xmlns="http://www.w3.org/2000/svg" viewBox="0 0 900 600" role="img" aria-label="Diwali Cultural Night placeholder">
  <defs>
    <linearGradient id="bg" x1="0" x2="1" y1="0" y2="1">
      <stop stop-color="#651f1f"/>
      <stop offset="1" stop-color="#b99047"/>
    </linearGradient>
  </defs>
  <rect width="900" height="600" fill="url(#bg)"/>
  <g opacity=".9">
    <path d="M450 108c54 58 80 104 80 148a80 80 0 0 1-160 0c0-44 26-90 80-148Z" fill="#f4b63f"/>
    <path d="M278 326c66 44 278 44 344 0-12 84-78 136-172 136s-160-52-172-136Z" fill="#fff7e8" opacity=".9"/>
    <path d="M310 334c92 30 188 30 280 0" fill="none" stroke="#b85f3a" stroke-width="18" stroke-linecap="round"/>
  </g>
  <g fill="#f4b63f" opacity=".65">
    <circle cx="130" cy="108" r="8"/><circle cx="192" cy="210" r="5"/><circle cx="720" cy="92" r="7"/><circle cx="786" cy="262" r="6"/><circle cx="686" cy="392" r="5"/>
  </g>
  <text x="450" y="528" text-anchor="middle" font-family="Georgia, serif" font-size="52" font-weight="700" fill="#fff7e8">Diwali Cultural Night</text>
</svg>
